<?xml version="1.0" encoding="utf-8"?>
<!-- Generator: Adobe Illustrator 19.0.0, SVG Export Plug-In . SVG Version: 6.00 Build 0)  -->
<svg version="1.1" id="Capa_1" xmlns="http://www.w3.org/2000/svg" xmlns:xlink="http://www.w3.org/1999/xlink" x="0px" y="0px"
	 viewBox="0 0 64 64" style="enable-background:new 0 0 64 64;" xml:space="preserve">
<style type="text/css">
	.st0{fill:#FFFFFF;}
	.st1{fill:#C3922D;}
	.st2{fill:#CFA549;}
	.st3{fill:#444999;}
</style>
<g id="XMLID_1_">
	<polygon id="XMLID_8_" class="st0" points="19.1,18.3 19.1,18.4 19.1,18.3 	"/>
	<g id="XMLID_2_">
		<polygon id="XMLID_4_" class="st0" points="19.1,16 19.1,16 19.1,16 		"/>
		<polygon id="XMLID_12_" class="st1" points="19.1,16 19.1,16 19,16 0.6,34.4 0.5,36.9 19.1,18.3 19.1,18.3 		"/>
		<polygon id="XMLID_13_" class="st2" points="19.1,16 19.1,16 19.1,16 19.1,18.3 19.1,18.4 37.7,36.9 37.8,34.7 		"/>
	</g>
	<polygon id="XMLID_17_" class="st0" points="44.8,16 44.8,16 44.8,16 	"/>
	<polygon id="XMLID_11_" class="st0" points="44.8,18.3 44.9,18.4 44.9,18.3 	"/>
	<g id="XMLID_3_">
		<polygon id="XMLID_7_" class="st1" points="44.8,16 44.8,16 44.8,16 26.3,34.4 26.2,36.9 44.8,18.3 44.9,18.3 		"/>
		<polygon id="XMLID_5_" class="st2" points="44.8,16 44.8,16 44.8,16 44.9,18.3 44.9,18.4 63.4,36.9 63.5,34.7 		"/>
	</g>
	<polygon id="XMLID_36_" class="st0" points="19.1,19.8 19.1,19.8 19.1,19.8 	"/>
	<polygon id="XMLID_35_" class="st0" points="19.1,22.1 19.1,22.2 19.1,22 	"/>
	<g id="XMLID_14_">
		<polygon id="XMLID_32_" class="st1" points="19.1,19.8 19.1,19.8 19,19.7 0.6,38.2 0.5,40.7 19.1,22.1 19.1,22 		"/>
		<polygon id="XMLID_29_" class="st2" points="19.1,19.7 19.1,19.8 19.1,19.8 19.1,22 19.1,22.2 37.7,40.7 37.8,38.4 		"/>
	</g>
	<polygon id="XMLID_26_" class="st0" points="44.8,19.8 44.8,19.8 44.8,19.8 	"/>
	<polygon id="XMLID_22_" class="st0" points="44.8,22.1 44.9,22.2 44.9,22 	"/>
	<g id="XMLID_6_">
		<polygon id="XMLID_19_" class="st1" points="44.8,19.8 44.8,19.8 44.8,19.7 26.3,38.2 26.2,40.7 44.8,22.1 44.9,22 		"/>
		<polygon id="XMLID_9_" class="st2" points="44.8,19.7 44.8,19.8 44.8,19.8 44.9,22 44.9,22.2 63.4,40.7 63.5,38.4 		"/>
	</g>
	<polygon id="XMLID_54_" class="st0" points="19.1,23.5 19.1,23.5 19.1,23.5 	"/>
	<polygon id="XMLID_53_" class="st0" points="19.1,25.8 19.1,25.9 19.1,25.8 	"/>
	<g id="XMLID_16_">
		<polygon id="XMLID_50_" class="st1" points="19.1,23.5 19.1,23.5 19,23.5 0.6,41.9 0.5,44.4 19.1,25.8 19.1,25.8 		"/>
		<polygon id="XMLID_47_" class="st2" points="19.1,23.5 19.1,23.5 19.1,23.5 19.1,25.8 19.1,25.9 37.7,44.5 37.8,42.2 		"/>
	</g>
	<polygon id="XMLID_45_" class="st0" points="44.8,23.5 44.8,23.5 44.8,23.5 	"/>
	<polygon id="XMLID_44_" class="st0" points="44.8,25.8 44.9,25.9 44.9,25.8 	"/>
	<g id="XMLID_10_">
		<polygon id="XMLID_41_" class="st1" points="44.8,23.5 44.8,23.5 44.8,23.5 26.3,41.9 26.2,44.4 44.8,25.8 44.9,25.8 		"/>
		<polygon id="XMLID_38_" class="st2" points="44.8,23.5 44.8,23.5 44.8,23.5 44.9,25.8 44.9,25.9 63.4,44.5 63.5,42.2 		"/>
	</g>
	<polygon id="XMLID_72_" class="st0" points="19.1,27.1 19.1,27.1 19.1,27.1 	"/>
	<polygon id="XMLID_71_" class="st0" points="19.1,29.4 19.1,29.5 19.1,29.3 	"/>
	<g id="XMLID_28_">
		<polygon id="XMLID_68_" class="st1" points="19.1,27.1 19.1,27.1 19,27.1 0.6,45.5 0.5,48 19.1,29.4 19.1,29.3 		"/>
		<polygon id="XMLID_65_" class="st2" points="19.1,27.1 19.1,27.1 19.1,27.1 19.1,29.3 19.1,29.5 37.7,48 37.8,45.7 		"/>
	</g>
	<polygon id="XMLID_63_" class="st0" points="44.8,27.1 44.8,27.1 44.8,27.1 	"/>
	<polygon id="XMLID_62_" class="st0" points="44.8,29.4 44.9,29.5 44.9,29.3 	"/>
	<g id="XMLID_15_">
		<polygon id="XMLID_59_" class="st1" points="44.8,27.1 44.8,27.1 44.8,27.1 26.3,45.5 26.2,48 44.8,29.4 44.9,29.3 		"/>
		<polygon id="XMLID_56_" class="st2" points="44.8,27.1 44.8,27.1 44.8,27.1 44.9,29.3 44.9,29.5 63.4,48 63.5,45.7 		"/>
	</g>
	<polygon id="XMLID_164_" class="st3" points="14.5,36.4 14.4,36.5 14.5,36.5 	"/>
	<polygon id="XMLID_165_" class="st3" points="14.4,38 14.5,38 14.5,38 	"/>
</g>
</svg>
